%TF.GenerationSoftware,KiCad,Pcbnew,10.0.2*%
%TF.CreationDate,2026-06-06T21:11:19-05:00*%
%TF.ProjectId,RA_Preamp_RevA,52415f50-7265-4616-9d70-5f526576412e,rev?*%
%TF.SameCoordinates,Original*%
%TF.FileFunction,Soldermask,Top*%
%TF.FilePolarity,Negative*%
%FSLAX46Y46*%
G04 Gerber Fmt 4.6, Leading zero omitted, Abs format (unit mm)*
G04 Created by KiCad (PCBNEW 10.0.2) date 2026-06-06 21:11:19*
%MOMM*%
%LPD*%
G01*
G04 APERTURE LIST*
G04 Aperture macros list*
%AMRoundRect*
0 Rectangle with rounded corners*
0 $1 Rounding radius*
0 $2 $3 $4 $5 $6 $7 $8 $9 X,Y pos of 4 corners*
0 Add a 4 corners polygon primitive as box body*
4,1,4,$2,$3,$4,$5,$6,$7,$8,$9,$2,$3,0*
0 Add four circle primitives for the rounded corners*
1,1,$1+$1,$2,$3*
1,1,$1+$1,$4,$5*
1,1,$1+$1,$6,$7*
1,1,$1+$1,$8,$9*
0 Add four rect primitives between the rounded corners*
20,1,$1+$1,$2,$3,$4,$5,0*
20,1,$1+$1,$4,$5,$6,$7,0*
20,1,$1+$1,$6,$7,$8,$9,0*
20,1,$1+$1,$8,$9,$2,$3,0*%
%AMFreePoly0*
4,1,8,0.126336,0.073767,0.125000,0.073767,0.125000,-0.237500,-0.125000,-0.237500,-0.125000,0.081738,-0.229516,0.705352,0.231272,0.707355,0.126336,0.073767,0.126336,0.073767,$1*%
%AMFreePoly1*
4,1,8,-0.032249,0.125000,0.237500,0.125000,0.237500,-0.125000,0.001913,-0.125000,0.001913,-0.131446,-0.544968,-0.235343,-0.548720,0.222451,-0.032249,0.125000,-0.032249,0.125000,$1*%
%AMFreePoly2*
4,1,7,0.125000,-0.116801,0.220693,-0.620499,-0.214647,-0.616855,-0.125000,-0.095456,-0.125000,0.237500,0.125000,0.237500,0.125000,-0.116801,0.125000,-0.116801,$1*%
%AMFreePoly3*
4,1,7,0.606755,-0.237132,0.073609,-0.125000,-0.237500,-0.125000,-0.237500,0.125000,0.099468,0.125000,0.603003,0.220662,0.606755,-0.237132,0.606755,-0.237132,$1*%
%AMFreePoly4*
4,1,9,0.129414,0.051702,0.125000,0.051702,0.125000,-0.237500,-0.125000,-0.237500,-0.125000,0.237500,-0.100121,0.237500,-0.050355,0.689325,0.436478,0.707355,0.129414,0.051702,0.129414,0.051702,$1*%
G04 Aperture macros list end*
%ADD10RoundRect,0.140000X0.170000X-0.140000X0.170000X0.140000X-0.170000X0.140000X-0.170000X-0.140000X0*%
%ADD11RoundRect,0.140000X0.140000X0.170000X-0.140000X0.170000X-0.140000X-0.170000X0.140000X-0.170000X0*%
%ADD12RoundRect,0.214044X0.611456X0.547956X-0.611456X0.547956X-0.611456X-0.547956X0.611456X-0.547956X0*%
%ADD13RoundRect,0.147500X0.147500X0.172500X-0.147500X0.172500X-0.147500X-0.172500X0.147500X-0.172500X0*%
%ADD14RoundRect,0.140000X-0.219203X-0.021213X-0.021213X-0.219203X0.219203X0.021213X0.021213X0.219203X0*%
%ADD15FreePoly0,180.000000*%
%ADD16FreePoly0,0.000000*%
%ADD17RoundRect,0.062500X0.062500X-0.287500X0.062500X0.287500X-0.062500X0.287500X-0.062500X-0.287500X0*%
%ADD18R,1.600000X0.800000*%
%ADD19C,3.800000*%
%ADD20R,2.019300X2.019300*%
%ADD21C,2.019300*%
%ADD22R,1.500000X5.080000*%
%ADD23R,3.024000X5.080000*%
%ADD24RoundRect,0.140000X-0.170000X0.140000X-0.170000X-0.140000X0.170000X-0.140000X0.170000X0.140000X0*%
%ADD25RoundRect,0.147500X-0.147500X-0.172500X0.147500X-0.172500X0.147500X0.172500X-0.147500X0.172500X0*%
%ADD26RoundRect,0.062500X-0.062500X0.287500X-0.062500X-0.287500X0.062500X-0.287500X0.062500X0.287500X0*%
%ADD27RoundRect,0.140000X-0.140000X-0.170000X0.140000X-0.170000X0.140000X0.170000X-0.140000X0.170000X0*%
%ADD28RoundRect,0.237500X-0.300000X-0.237500X0.300000X-0.237500X0.300000X0.237500X-0.300000X0.237500X0*%
%ADD29RoundRect,0.140000X-0.191728X0.108353X-0.143107X-0.167393X0.191728X-0.108353X0.143107X0.167393X0*%
%ADD30RoundRect,0.135000X0.135000X0.185000X-0.135000X0.185000X-0.135000X-0.185000X0.135000X-0.185000X0*%
%ADD31RoundRect,0.135000X0.185000X-0.135000X0.185000X0.135000X-0.185000X0.135000X-0.185000X-0.135000X0*%
%ADD32RoundRect,0.062500X0.062500X-0.175000X0.062500X0.175000X-0.062500X0.175000X-0.062500X-0.175000X0*%
%ADD33FreePoly1,90.000000*%
%ADD34RoundRect,0.062500X0.175000X-0.062500X0.175000X0.062500X-0.175000X0.062500X-0.175000X-0.062500X0*%
%ADD35FreePoly2,90.000000*%
%ADD36FreePoly3,90.000000*%
%ADD37FreePoly4,90.000000*%
%ADD38FreePoly0,90.000000*%
%ADD39R,1.100000X1.100000*%
%ADD40RoundRect,0.135000X-0.185000X0.135000X-0.185000X-0.135000X0.185000X-0.135000X0.185000X0.135000X0*%
%ADD41RoundRect,0.140000X0.021213X-0.219203X0.219203X-0.021213X-0.021213X0.219203X-0.219203X0.021213X0*%
G04 APERTURE END LIST*
D10*
%TO.C,C8*%
X144950000Y-53050000D03*
X144950000Y-52090000D03*
%TD*%
%TO.C,C3*%
X139970000Y-67160000D03*
X139970000Y-66200000D03*
%TD*%
D11*
%TO.C,C4*%
X147340000Y-55870000D03*
X146380000Y-55870000D03*
%TD*%
D12*
%TO.C,FL1*%
X150642597Y-66054994D03*
X150642597Y-63768994D03*
X150642597Y-61482994D03*
X144673597Y-61482994D03*
X144673597Y-63768994D03*
X144673597Y-66054994D03*
%TD*%
D11*
%TO.C,C5*%
X147360000Y-54840000D03*
X146400000Y-54840000D03*
%TD*%
D13*
%TO.C,L3*%
X145245000Y-74470000D03*
X144275000Y-74470000D03*
%TD*%
D14*
%TO.C,C20*%
X143960589Y-58160589D03*
X144639411Y-58839411D03*
%TD*%
D15*
%TO.C,U3*%
X139967500Y-65235000D03*
D16*
X139967500Y-62785000D03*
D17*
X139467500Y-65010000D03*
X139967500Y-65010000D03*
X140467500Y-65010000D03*
X140967500Y-65010000D03*
X140967500Y-63010000D03*
X140467500Y-63010000D03*
X139967500Y-63010000D03*
X139467500Y-63010000D03*
D18*
X140217500Y-64010000D03*
%TD*%
D19*
%TO.C,H10*%
X150750000Y-78844800D03*
%TD*%
D11*
%TO.C,C17*%
X147710000Y-74490000D03*
X146750000Y-74490000D03*
%TD*%
D20*
%TO.C,J11*%
X134119528Y-46611575D03*
D21*
X134119528Y-49151575D03*
X134119528Y-51691575D03*
X134119528Y-54231575D03*
X134119528Y-56771575D03*
%TD*%
D22*
%TO.C,J2*%
X143085700Y-79329451D03*
D23*
X146573700Y-79329451D03*
X139597700Y-79329451D03*
%TD*%
D24*
%TO.C,C9*%
X143120000Y-68790000D03*
X143120000Y-69750000D03*
%TD*%
D25*
%TO.C,L2*%
X138535000Y-61440000D03*
X139505000Y-61440000D03*
%TD*%
D16*
%TO.C,U4*%
X143122500Y-70685000D03*
D15*
X143122500Y-73135000D03*
D26*
X143622500Y-70910000D03*
X143122500Y-70910000D03*
X142622500Y-70910000D03*
X142122500Y-70910000D03*
X142122500Y-72910000D03*
X142622500Y-72910000D03*
X143122500Y-72910000D03*
X143622500Y-72910000D03*
D18*
X142872500Y-71910000D03*
%TD*%
D27*
%TO.C,C13*%
X136170000Y-63380000D03*
X137130000Y-63380000D03*
%TD*%
D11*
%TO.C,C7*%
X143300000Y-55830000D03*
X142340000Y-55830000D03*
%TD*%
%TO.C,C15*%
X147690000Y-75660000D03*
X146730000Y-75660000D03*
%TD*%
D13*
%TO.C,L1*%
X145275000Y-55300000D03*
X144305000Y-55300000D03*
%TD*%
D22*
%TO.C,J1*%
X143085700Y-46453307D03*
D23*
X139597700Y-46453307D03*
X146573700Y-46453307D03*
%TD*%
D24*
%TO.C,C16*%
X144430000Y-68630000D03*
X144430000Y-69590000D03*
%TD*%
D28*
%TO.C,C2*%
X137007500Y-58700000D03*
X138732500Y-58700000D03*
%TD*%
D16*
%TO.C,U2*%
X143292500Y-51857500D03*
D15*
X143292500Y-54307500D03*
D26*
X143792500Y-52082500D03*
X143292500Y-52082500D03*
X142792500Y-52082500D03*
X142292500Y-52082500D03*
X142292500Y-54082500D03*
X142792500Y-54082500D03*
X143292500Y-54082500D03*
X143792500Y-54082500D03*
D18*
X143042500Y-53082500D03*
%TD*%
D27*
%TO.C,C10*%
X136250000Y-60250000D03*
X137210000Y-60250000D03*
%TD*%
D29*
%TO.C,C1*%
X143106136Y-50038317D03*
X143272838Y-50983733D03*
%TD*%
D11*
%TO.C,C6*%
X147340000Y-53780000D03*
X146380000Y-53780000D03*
%TD*%
D27*
%TO.C,C18*%
X145070000Y-71720000D03*
X146030000Y-71720000D03*
%TD*%
D30*
%TO.C,R4*%
X146277185Y-51090985D03*
X145257185Y-51090985D03*
%TD*%
D24*
%TO.C,C11*%
X137850000Y-64840000D03*
X137850000Y-65800000D03*
%TD*%
D31*
%TO.C,R5*%
X137830000Y-68160000D03*
X137830000Y-67140000D03*
%TD*%
D30*
%TO.C,R6*%
X146060000Y-70680000D03*
X145040000Y-70680000D03*
%TD*%
D27*
%TO.C,C12*%
X136230000Y-61420000D03*
X137190000Y-61420000D03*
%TD*%
D19*
%TO.C,H11*%
X150750000Y-52682800D03*
%TD*%
D32*
%TO.C,U1*%
X141049402Y-59140595D03*
D33*
X141549402Y-59140595D03*
D32*
X142049402Y-59140595D03*
D34*
X142511902Y-58678095D03*
D35*
X142511902Y-58178095D03*
D34*
X142511902Y-57678095D03*
D32*
X142049402Y-57215595D03*
D36*
X141549402Y-57215595D03*
D32*
X141049402Y-57215595D03*
D34*
X140586902Y-57678095D03*
D37*
X140586902Y-58178095D03*
D38*
X140586902Y-58678095D03*
D39*
X141549402Y-58178095D03*
%TD*%
D24*
%TO.C,C19*%
X143130000Y-74490000D03*
X143130000Y-75450000D03*
%TD*%
D40*
%TO.C,R3*%
X139960000Y-68100000D03*
X139960000Y-69120000D03*
%TD*%
D41*
%TO.C,C14*%
X140910589Y-61349411D03*
X141589411Y-60670589D03*
%TD*%
M02*
