%TF.GenerationSoftware,KiCad,Pcbnew,10.0.2*%
%TF.CreationDate,2026-06-06T21:11:19-05:00*%
%TF.ProjectId,RA_Preamp_RevA,52415f50-7265-4616-9d70-5f526576412e,rev?*%
%TF.SameCoordinates,Original*%
%TF.FileFunction,Copper,L2,Bot*%
%TF.FilePolarity,Positive*%
%FSLAX46Y46*%
G04 Gerber Fmt 4.6, Leading zero omitted, Abs format (unit mm)*
G04 Created by KiCad (PCBNEW 10.0.2) date 2026-06-06 21:11:19*
%MOMM*%
%LPD*%
G01*
G04 APERTURE LIST*
%TA.AperFunction,ComponentPad*%
%ADD10C,3.800000*%
%TD*%
%TA.AperFunction,ComponentPad*%
%ADD11R,2.019300X2.019300*%
%TD*%
%TA.AperFunction,ComponentPad*%
%ADD12C,2.019300*%
%TD*%
%TA.AperFunction,SMDPad,CuDef*%
%ADD13R,3.024000X5.080000*%
%TD*%
%TA.AperFunction,ViaPad*%
%ADD14C,0.600000*%
%TD*%
%TA.AperFunction,Conductor*%
%ADD15C,0.457200*%
%TD*%
G04 APERTURE END LIST*
D10*
%TO.P,H10,1,1_1*%
%TO.N,GND*%
X150750000Y-78844800D03*
%TD*%
D11*
%TO.P,J11,1,Pin_1_1*%
%TO.N,Vdd*%
X134119528Y-46611575D03*
D12*
%TO.P,J11,2,Pin_2_2*%
%TO.N,+5V*%
X134119528Y-49151575D03*
%TO.P,J11,3,Pin_3_3*%
%TO.N,GND*%
X134119528Y-51691575D03*
%TO.P,J11,4,Pin_4_4*%
%TO.N,GNDD*%
X134119528Y-54231575D03*
%TO.P,J11,5,Pin_5_5*%
%TO.N,Net-(J11-Pin_5)*%
X134119528Y-56771575D03*
%TD*%
D13*
%TO.P,J2,2,Ext_2*%
%TO.N,GND*%
X146573700Y-79329451D03*
X139597700Y-79329451D03*
%TD*%
%TO.P,J1,2*%
%TO.N,N/C*%
X139597700Y-46453307D03*
X146573700Y-46453307D03*
%TD*%
D10*
%TO.P,H11,1,1_1*%
%TO.N,GND*%
X150750000Y-52682800D03*
%TD*%
D14*
%TO.N,GND*%
X138920000Y-68330000D03*
X148590000Y-67310000D03*
X148590000Y-57150000D03*
X138960000Y-66560000D03*
X141290000Y-71910000D03*
X146050000Y-64770000D03*
X143612600Y-59287400D03*
X144737185Y-54100985D03*
X151130000Y-68580000D03*
X141970000Y-75490000D03*
X141720000Y-62030000D03*
X145680000Y-58440000D03*
X152400000Y-55880000D03*
X139750000Y-54524800D03*
X143025000Y-57024800D03*
X143421185Y-53120785D03*
X148590000Y-63500000D03*
X137860000Y-48380000D03*
X149860000Y-67310000D03*
X136250000Y-52024800D03*
X152400000Y-69850000D03*
X137466691Y-56936691D03*
X144430000Y-75550000D03*
X148250000Y-48524800D03*
X148590000Y-68580000D03*
X152400000Y-58420000D03*
X146270000Y-60980000D03*
X144220000Y-51180000D03*
X140200000Y-59874800D03*
X140250000Y-55024800D03*
X141950000Y-74790000D03*
X144490000Y-49650000D03*
X149860000Y-68580000D03*
X148170000Y-49850000D03*
X137750000Y-54524800D03*
X137357251Y-52009694D03*
X148590000Y-66040000D03*
X142070000Y-74040000D03*
X141563849Y-58163649D03*
X148170000Y-80940000D03*
X149860000Y-58420000D03*
X140975000Y-65770000D03*
X141120000Y-66510000D03*
X145640000Y-53030000D03*
X141200000Y-72930000D03*
X147320000Y-67310000D03*
X139000000Y-67330000D03*
X139509404Y-57600596D03*
X144380000Y-67630000D03*
X141090000Y-67340000D03*
X152400000Y-66040000D03*
X138000000Y-77600000D03*
X146050000Y-67310000D03*
X146050000Y-57150000D03*
X152400000Y-59690000D03*
X142090000Y-67430000D03*
X148590000Y-69850000D03*
X147320000Y-58420000D03*
X143030000Y-59760000D03*
X137940000Y-45930000D03*
X146300000Y-66040000D03*
X142270000Y-51440000D03*
X142380000Y-66640000D03*
X149860000Y-59690000D03*
X136233384Y-53351084D03*
X141670000Y-50010000D03*
X142115000Y-70180000D03*
X148590000Y-60960000D03*
X151130000Y-57150000D03*
X145910000Y-60070000D03*
X138750000Y-52524800D03*
X144750000Y-72560000D03*
X149860000Y-69850000D03*
X140217500Y-64010000D03*
X152400000Y-68580000D03*
X152400000Y-62230000D03*
X137940000Y-80860000D03*
X136013872Y-46461363D03*
X144070000Y-56810000D03*
X143100000Y-63900000D03*
X148250000Y-46524800D03*
X151130000Y-58420000D03*
X146050000Y-69850000D03*
X152400000Y-64770000D03*
X144330000Y-73300000D03*
X148590000Y-62230000D03*
X141001273Y-55215452D03*
X147320000Y-63500000D03*
X147320000Y-66040000D03*
X147320000Y-62230000D03*
X138700000Y-60450000D03*
X141080000Y-68360000D03*
X142000000Y-69250000D03*
X141840000Y-63000000D03*
X142866250Y-71946250D03*
X140250000Y-74888000D03*
X140750000Y-55940000D03*
X147320000Y-68580000D03*
X152400000Y-63500000D03*
X140630000Y-69946400D03*
X145700000Y-59250000D03*
X147320000Y-60960000D03*
X148590000Y-59690000D03*
X148140000Y-77540000D03*
X136000000Y-45274800D03*
X152250000Y-45524800D03*
X152400000Y-60960000D03*
X146270000Y-62430000D03*
X151130000Y-67310000D03*
X142970000Y-62490000D03*
X151130000Y-69850000D03*
X142950000Y-61480000D03*
X142960000Y-66010000D03*
X152250000Y-48024800D03*
X142050000Y-50760000D03*
X148590000Y-58420000D03*
X146050000Y-63500000D03*
X143050000Y-65060000D03*
X141640000Y-52270000D03*
X144220000Y-50370000D03*
X139570000Y-60400000D03*
X147320000Y-57150000D03*
X152400000Y-67310000D03*
X145210000Y-76620000D03*
X151130000Y-59690000D03*
X147320000Y-59690000D03*
X145160000Y-57530000D03*
X147320000Y-69850000D03*
X149860000Y-57150000D03*
X147320000Y-64770000D03*
X142659185Y-53082500D03*
X133476426Y-44611142D03*
X143030000Y-60510000D03*
X136750000Y-54524800D03*
X148590000Y-64770000D03*
X146050000Y-68580000D03*
X142040000Y-68340000D03*
X138590000Y-63010000D03*
X152400000Y-57150000D03*
X144705000Y-76115000D03*
X141620000Y-52960000D03*
%TO.N,+5V*%
X137130000Y-64000000D03*
X145340000Y-56160000D03*
X138480219Y-57690000D03*
X146745000Y-71365000D03*
X145870000Y-72520000D03*
X137160000Y-68150000D03*
X140935158Y-53964642D03*
%TD*%
%TO.N,+5V*%
D15*
X146090000Y-71259000D02*
X145911000Y-71080000D01*
X144840000Y-55660000D02*
X142630516Y-55660000D01*
X146745000Y-71365000D02*
X146745000Y-71645000D01*
X142630516Y-55660000D02*
X140935158Y-53964642D01*
X146745000Y-71645000D02*
X145870000Y-72520000D01*
X138480219Y-54369581D02*
X139050000Y-53799800D01*
X137160000Y-68150000D02*
X137160000Y-64030000D01*
X140770316Y-53799800D02*
X140935158Y-53964642D01*
X146639000Y-71259000D02*
X146090000Y-71259000D01*
X140090000Y-71080000D02*
X137160000Y-68150000D01*
X137160000Y-64030000D02*
X137130000Y-64000000D01*
X145340000Y-56160000D02*
X144840000Y-55660000D01*
X145911000Y-71080000D02*
X140090000Y-71080000D01*
X146745000Y-71365000D02*
X146639000Y-71259000D01*
X138480219Y-57690000D02*
X138480219Y-54369581D01*
X139050000Y-53799800D02*
X140770316Y-53799800D01*
%TD*%
%TA.AperFunction,Conductor*%
%TO.N,GND*%
G36*
X137470306Y-43805323D02*
G01*
X137485304Y-43809727D01*
X137500294Y-43819357D01*
X137517375Y-43824367D01*
X137544055Y-43847472D01*
X137545242Y-43848841D01*
X137572718Y-43903702D01*
X137574363Y-43911260D01*
X137577200Y-43937631D01*
X137577200Y-49041965D01*
X137583000Y-49095896D01*
X137583204Y-49099703D01*
X137583710Y-49102509D01*
X137583711Y-49102511D01*
X137634811Y-49239511D01*
X137722439Y-49356568D01*
X137839496Y-49444196D01*
X137839495Y-49444196D01*
X137976493Y-49495294D01*
X137976499Y-49495296D01*
X138003750Y-49498225D01*
X138003758Y-49498226D01*
X138007953Y-49498677D01*
X138037045Y-49501806D01*
X138037056Y-49501806D01*
X138037058Y-49501807D01*
X138037062Y-49501807D01*
X141158333Y-49501807D01*
X141158338Y-49501807D01*
X141158354Y-49501806D01*
X141158363Y-49501804D01*
X141158378Y-49501804D01*
X141174402Y-49500079D01*
X141185380Y-49498899D01*
X141185392Y-49498901D01*
X141185392Y-49498898D01*
X141218901Y-49495296D01*
X141355904Y-49444196D01*
X141472961Y-49356568D01*
X141560589Y-49239511D01*
X141611689Y-49102508D01*
X141615291Y-49068999D01*
X141618199Y-49041961D01*
X141618200Y-49041944D01*
X141618200Y-43942129D01*
X141623223Y-43907193D01*
X141627627Y-43892195D01*
X141665372Y-43833444D01*
X141665400Y-43833419D01*
X141665399Y-43833419D01*
X141666741Y-43832256D01*
X141721620Y-43804777D01*
X141729179Y-43803133D01*
X141755532Y-43800300D01*
X144411371Y-43800300D01*
X144446306Y-43805323D01*
X144461304Y-43809727D01*
X144520055Y-43847472D01*
X144520079Y-43847500D01*
X144520082Y-43847502D01*
X144520083Y-43847504D01*
X144521242Y-43848841D01*
X144548718Y-43903702D01*
X144550363Y-43911260D01*
X144553200Y-43937631D01*
X144553200Y-49041965D01*
X144559000Y-49095896D01*
X144559204Y-49099703D01*
X144559710Y-49102509D01*
X144559711Y-49102511D01*
X144610811Y-49239511D01*
X144698439Y-49356568D01*
X144815496Y-49444196D01*
X144815495Y-49444196D01*
X144952493Y-49495294D01*
X144952499Y-49495296D01*
X144979750Y-49498225D01*
X144979758Y-49498226D01*
X144983953Y-49498677D01*
X145013045Y-49501806D01*
X145013056Y-49501806D01*
X145013058Y-49501807D01*
X145013062Y-49501807D01*
X148134333Y-49501807D01*
X148134338Y-49501807D01*
X148134354Y-49501806D01*
X148134363Y-49501804D01*
X148134378Y-49501804D01*
X148150402Y-49500079D01*
X148161380Y-49498899D01*
X148161392Y-49498901D01*
X148161392Y-49498898D01*
X148194901Y-49495296D01*
X148331904Y-49444196D01*
X148448961Y-49356568D01*
X148536589Y-49239511D01*
X148587689Y-49102508D01*
X148591291Y-49068999D01*
X148594199Y-49041961D01*
X148594200Y-49041944D01*
X148594200Y-43942129D01*
X148599223Y-43907193D01*
X148603627Y-43892195D01*
X148641372Y-43833444D01*
X148641400Y-43833419D01*
X148641399Y-43833419D01*
X148642741Y-43832256D01*
X148697620Y-43804777D01*
X148705179Y-43803133D01*
X148731532Y-43800300D01*
X153369935Y-43800300D01*
X153404870Y-43805323D01*
X153419868Y-43809727D01*
X153478639Y-43847495D01*
X153478643Y-43847500D01*
X153478646Y-43847502D01*
X153478647Y-43847504D01*
X153479945Y-43849002D01*
X153507331Y-43903519D01*
X153508928Y-43910764D01*
X153511833Y-43936768D01*
X153520464Y-45492720D01*
X153721696Y-81776782D01*
X153721697Y-81776783D01*
X153716869Y-81811741D01*
X153712547Y-81826767D01*
X153675101Y-81885753D01*
X153675044Y-81885803D01*
X153673818Y-81886876D01*
X153618860Y-81914656D01*
X153610998Y-81916390D01*
X153584291Y-81919300D01*
X148727530Y-81919300D01*
X148727525Y-81919299D01*
X148727523Y-81919300D01*
X148692589Y-81914275D01*
X148677590Y-81909870D01*
X148618844Y-81872127D01*
X148618815Y-81872093D01*
X148618814Y-81872093D01*
X148618813Y-81872091D01*
X148617657Y-81870758D01*
X148590177Y-81815883D01*
X148588532Y-81808321D01*
X148585700Y-81781968D01*
X148585700Y-79579451D01*
X144561700Y-79579451D01*
X144561700Y-81777470D01*
X144561699Y-81777476D01*
X144561700Y-81777479D01*
X144556675Y-81812414D01*
X144552270Y-81827412D01*
X144514527Y-81886155D01*
X144514492Y-81886185D01*
X144514491Y-81886187D01*
X144514489Y-81886187D01*
X144513158Y-81887342D01*
X144458297Y-81914818D01*
X144450739Y-81916463D01*
X144424368Y-81919300D01*
X141751530Y-81919300D01*
X141751525Y-81919299D01*
X141751523Y-81919300D01*
X141716589Y-81914275D01*
X141701590Y-81909870D01*
X141642844Y-81872127D01*
X141642815Y-81872093D01*
X141642814Y-81872093D01*
X141642813Y-81872091D01*
X141641657Y-81870758D01*
X141614177Y-81815883D01*
X141612532Y-81808321D01*
X141609700Y-81781968D01*
X141609700Y-79579451D01*
X137585700Y-79579451D01*
X137585700Y-81777470D01*
X137585699Y-81777476D01*
X137585700Y-81777479D01*
X137580675Y-81812414D01*
X137576270Y-81827412D01*
X137538527Y-81886155D01*
X137538492Y-81886185D01*
X137538491Y-81886187D01*
X137538489Y-81886187D01*
X137537158Y-81887342D01*
X137482297Y-81914818D01*
X137474739Y-81916463D01*
X137448368Y-81919300D01*
X132855625Y-81919300D01*
X132855620Y-81919299D01*
X132855618Y-81919300D01*
X132820684Y-81914275D01*
X132805685Y-81909870D01*
X132746947Y-81872137D01*
X132745732Y-81870736D01*
X132718263Y-81815938D01*
X132716628Y-81808442D01*
X132713777Y-81782176D01*
X132707284Y-76741597D01*
X137585700Y-76741597D01*
X137585700Y-76741606D01*
X137585700Y-79079451D01*
X139347700Y-79079451D01*
X139847700Y-79079451D01*
X141609700Y-79079451D01*
X141609700Y-76741623D01*
X141609699Y-76741606D01*
X141609698Y-76741597D01*
X144561700Y-76741597D01*
X144561700Y-76741606D01*
X144561700Y-79079451D01*
X146323700Y-79079451D01*
X146823700Y-79079451D01*
X148585700Y-79079451D01*
X148585700Y-76741623D01*
X148585699Y-76741606D01*
X148585698Y-76741597D01*
X148585698Y-76741589D01*
X148579298Y-76682079D01*
X148579296Y-76682072D01*
X148579296Y-76682071D01*
X148529054Y-76547364D01*
X148529050Y-76547357D01*
X148442890Y-76432263D01*
X148442887Y-76432260D01*
X148442885Y-76432258D01*
X148385017Y-76388938D01*
X148327793Y-76346100D01*
X148327786Y-76346096D01*
X148260432Y-76320975D01*
X148193077Y-76295853D01*
X148193070Y-76295851D01*
X148133552Y-76289451D01*
X148133544Y-76289451D01*
X146823700Y-76289451D01*
X146823700Y-79079451D01*
X146323700Y-79079451D01*
X146323700Y-76289451D01*
X145013846Y-76289451D01*
X144954328Y-76295851D01*
X144954321Y-76295853D01*
X144819610Y-76346097D01*
X144819607Y-76346099D01*
X144704513Y-76432258D01*
X144704507Y-76432264D01*
X144618348Y-76547358D01*
X144618346Y-76547361D01*
X144568102Y-76682072D01*
X144568100Y-76682079D01*
X144561700Y-76741597D01*
X141609698Y-76741597D01*
X141609698Y-76741589D01*
X141603298Y-76682079D01*
X141603296Y-76682072D01*
X141603296Y-76682071D01*
X141553054Y-76547364D01*
X141553050Y-76547357D01*
X141466890Y-76432263D01*
X141466887Y-76432260D01*
X141466885Y-76432258D01*
X141409017Y-76388938D01*
X141351793Y-76346100D01*
X141351788Y-76346097D01*
X141351789Y-76346097D01*
X141217077Y-76295853D01*
X141217070Y-76295851D01*
X141157552Y-76289451D01*
X141157544Y-76289451D01*
X139847700Y-76289451D01*
X139847700Y-79079451D01*
X139347700Y-79079451D01*
X139347700Y-76289451D01*
X138037846Y-76289451D01*
X137978328Y-76295851D01*
X137978321Y-76295853D01*
X137843610Y-76346097D01*
X137843607Y-76346099D01*
X137728513Y-76432258D01*
X137728507Y-76432264D01*
X137642348Y-76547358D01*
X137642346Y-76547361D01*
X137592102Y-76682072D01*
X137592100Y-76682079D01*
X137585700Y-76741597D01*
X132707284Y-76741597D01*
X132707280Y-76738462D01*
X132707207Y-76682079D01*
X132702204Y-72798318D01*
X132690970Y-64079636D01*
X136321499Y-64079636D01*
X136352564Y-64235805D01*
X136352569Y-64235826D01*
X136352571Y-64235834D01*
X136354985Y-64241662D01*
X136408790Y-64371557D01*
X136415845Y-64394815D01*
X136420517Y-64418303D01*
X136422900Y-64442494D01*
X136422900Y-67779928D01*
X136420517Y-67804116D01*
X136417739Y-67818087D01*
X136415844Y-67827612D01*
X136408788Y-67850870D01*
X136382575Y-67914153D01*
X136382569Y-67914172D01*
X136382564Y-67914193D01*
X136351500Y-68070362D01*
X136351500Y-68070365D01*
X136351500Y-68229634D01*
X136351500Y-68229636D01*
X136351499Y-68229636D01*
X136382564Y-68385805D01*
X136382570Y-68385830D01*
X136443516Y-68532968D01*
X136443517Y-68532969D01*
X136531995Y-68665387D01*
X136532001Y-68665394D01*
X136644605Y-68777998D01*
X136644612Y-68778004D01*
X136777030Y-68866482D01*
X136840323Y-68892699D01*
X136861761Y-68904158D01*
X136881685Y-68917471D01*
X136900475Y-68932892D01*
X139517457Y-71549874D01*
X139620126Y-71652543D01*
X139620127Y-71652544D01*
X139740845Y-71733206D01*
X139740858Y-71733213D01*
X139740860Y-71733213D01*
X139740864Y-71733216D01*
X139804326Y-71759502D01*
X139874991Y-71788772D01*
X139874996Y-71788774D01*
X140014467Y-71816516D01*
X140016667Y-71817009D01*
X140017399Y-71817100D01*
X140017401Y-71817100D01*
X140017402Y-71817100D01*
X145117473Y-71817100D01*
X145152407Y-71822123D01*
X145165474Y-71825960D01*
X145224252Y-71863735D01*
X145253276Y-71927292D01*
X145246330Y-71989301D01*
X145243376Y-71997011D01*
X145230686Y-72021537D01*
X145201605Y-72065059D01*
X145201606Y-72065060D01*
X145153515Y-72137033D01*
X145092570Y-72284168D01*
X145092564Y-72284193D01*
X145061500Y-72440362D01*
X145061500Y-72440365D01*
X145061500Y-72599634D01*
X145061500Y-72599636D01*
X145061499Y-72599636D01*
X145092564Y-72755805D01*
X145092570Y-72755830D01*
X145153516Y-72902968D01*
X145153517Y-72902969D01*
X145241995Y-73035387D01*
X145242001Y-73035394D01*
X145354605Y-73147998D01*
X145354612Y-73148004D01*
X145487030Y-73236482D01*
X145487031Y-73236482D01*
X145487032Y-73236483D01*
X145487034Y-73236483D01*
X145488052Y-73237164D01*
X145492650Y-73238810D01*
X145634169Y-73297430D01*
X145790365Y-73328499D01*
X145790369Y-73328500D01*
X145790370Y-73328500D01*
X145949631Y-73328500D01*
X145949632Y-73328499D01*
X146105831Y-73297430D01*
X146252968Y-73236483D01*
X146385389Y-73148003D01*
X146498003Y-73035389D01*
X146586483Y-72902968D01*
X146612702Y-72839666D01*
X146624160Y-72818232D01*
X146637466Y-72798318D01*
X146652877Y-72779537D01*
X147317543Y-72114874D01*
X147398210Y-71994148D01*
X147453774Y-71860004D01*
X147473787Y-71759385D01*
X147474113Y-71757811D01*
X147483962Y-71711660D01*
X147484320Y-71711696D01*
X147489336Y-71686481D01*
X147489504Y-71685694D01*
X147489877Y-71685003D01*
X147496211Y-71664125D01*
X147501009Y-71652544D01*
X147522430Y-71600831D01*
X147553500Y-71444630D01*
X147553500Y-71285370D01*
X147522430Y-71129169D01*
X147491956Y-71055600D01*
X147461484Y-70982033D01*
X147373001Y-70849608D01*
X147372995Y-70849602D01*
X147260394Y-70737001D01*
X147260387Y-70736995D01*
X147127969Y-70648517D01*
X147127970Y-70648517D01*
X147127968Y-70648516D01*
X146980840Y-70587573D01*
X146980832Y-70587570D01*
X146980831Y-70587570D01*
X146980825Y-70587568D01*
X146980822Y-70587567D01*
X146980821Y-70587567D01*
X146966176Y-70584654D01*
X146928224Y-70577105D01*
X146916425Y-70574149D01*
X146904829Y-70570631D01*
X146893381Y-70566535D01*
X146880893Y-70561363D01*
X146880893Y-70561362D01*
X146880887Y-70561361D01*
X146854005Y-70550226D01*
X146853978Y-70550220D01*
X146711604Y-70521900D01*
X146711602Y-70521900D01*
X146711598Y-70521900D01*
X146457935Y-70521900D01*
X146457934Y-70521899D01*
X146457934Y-70521900D01*
X146422999Y-70516877D01*
X146391191Y-70507537D01*
X146357236Y-70491662D01*
X146260160Y-70426797D01*
X146260159Y-70426796D01*
X146260154Y-70426793D01*
X146260141Y-70426786D01*
X146260134Y-70426782D01*
X146126009Y-70371227D01*
X146125978Y-70371220D01*
X145983604Y-70342900D01*
X145983602Y-70342900D01*
X145983598Y-70342900D01*
X140464509Y-70342900D01*
X140464508Y-70342899D01*
X140464508Y-70342900D01*
X140429573Y-70337877D01*
X140404331Y-70330465D01*
X140351586Y-70299169D01*
X137942894Y-67890477D01*
X137927465Y-67871674D01*
X137923141Y-67865201D01*
X137926040Y-67863264D01*
X137902476Y-67819151D01*
X137902259Y-67818087D01*
X137899480Y-67804109D01*
X137897100Y-67779929D01*
X137897100Y-64297647D01*
X137899483Y-64273456D01*
X137904897Y-64246238D01*
X137907145Y-64237263D01*
X137907431Y-64235826D01*
X137938500Y-64079630D01*
X137938500Y-63920370D01*
X137907430Y-63764169D01*
X137876956Y-63690600D01*
X137846484Y-63617033D01*
X137758001Y-63484608D01*
X137757995Y-63484602D01*
X137757989Y-63484596D01*
X137645394Y-63372001D01*
X137645387Y-63371995D01*
X137512969Y-63283517D01*
X137512970Y-63283517D01*
X137512968Y-63283516D01*
X137426777Y-63247814D01*
X137365831Y-63222570D01*
X137365823Y-63222568D01*
X137365815Y-63222566D01*
X137365805Y-63222564D01*
X137209636Y-63191500D01*
X137209634Y-63191500D01*
X137209630Y-63191500D01*
X137050370Y-63191500D01*
X137050365Y-63191500D01*
X137050363Y-63191500D01*
X136894193Y-63222564D01*
X136894168Y-63222570D01*
X136747030Y-63283516D01*
X136614609Y-63371997D01*
X136614596Y-63372009D01*
X136502009Y-63484596D01*
X136501997Y-63484609D01*
X136413516Y-63617030D01*
X136352570Y-63764168D01*
X136352564Y-63764193D01*
X136321500Y-63920362D01*
X136321500Y-63920365D01*
X136321500Y-64079634D01*
X136321500Y-64079636D01*
X136321499Y-64079636D01*
X132690970Y-64079636D01*
X132682849Y-57776572D01*
X132687624Y-57759833D01*
X132687389Y-57743169D01*
X132687784Y-57741781D01*
X132691000Y-57730776D01*
X132699854Y-57716960D01*
X132701595Y-57710860D01*
X132707563Y-57701278D01*
X132713028Y-57696405D01*
X132728699Y-57671953D01*
X132752881Y-57660872D01*
X132759714Y-57654780D01*
X132769585Y-57653217D01*
X132792218Y-57642847D01*
X132814801Y-57646062D01*
X132828725Y-57643859D01*
X132842805Y-57650049D01*
X132861369Y-57652693D01*
X132864166Y-57653965D01*
X132878698Y-57665831D01*
X132892685Y-57671981D01*
X132900299Y-57683467D01*
X132913133Y-57693947D01*
X132961548Y-57760583D01*
X133130520Y-57929555D01*
X133323844Y-58070013D01*
X133536761Y-58178499D01*
X133764027Y-58252343D01*
X134000047Y-58289725D01*
X134000048Y-58289725D01*
X134239008Y-58289725D01*
X134239009Y-58289725D01*
X134475029Y-58252343D01*
X134702295Y-58178499D01*
X134915212Y-58070013D01*
X135108536Y-57929555D01*
X135268455Y-57769636D01*
X137671718Y-57769636D01*
X137702783Y-57925805D01*
X137702787Y-57925823D01*
X137702789Y-57925831D01*
X137704332Y-57929555D01*
X137763735Y-58072968D01*
X137763736Y-58072969D01*
X137852214Y-58205387D01*
X137852220Y-58205394D01*
X137964824Y-58317998D01*
X137964831Y-58318004D01*
X138097249Y-58406482D01*
X138097250Y-58406482D01*
X138097251Y-58406483D01*
X138097253Y-58406483D01*
X138098271Y-58407164D01*
X138102869Y-58408810D01*
X138244388Y-58467430D01*
X138400584Y-58498499D01*
X138400588Y-58498500D01*
X138400589Y-58498500D01*
X138559850Y-58498500D01*
X138559851Y-58498499D01*
X138716050Y-58467430D01*
X138863187Y-58406483D01*
X138995608Y-58318003D01*
X139108222Y-58205389D01*
X139196702Y-58072968D01*
X139257649Y-57925831D01*
X139288719Y-57769630D01*
X139288719Y-57610370D01*
X139257649Y-57454169D01*
X139231426Y-57390863D01*
X139224375Y-57367612D01*
X139219700Y-57344113D01*
X139217319Y-57319928D01*
X139217319Y-54744087D01*
X139222341Y-54709154D01*
X139225963Y-54696819D01*
X139226720Y-54693335D01*
X139260198Y-54632018D01*
X139306398Y-54585818D01*
X139334643Y-54564675D01*
X139357735Y-54552067D01*
X139417160Y-54536900D01*
X140294831Y-54536900D01*
X140329763Y-54541921D01*
X140355007Y-54549334D01*
X140407753Y-54580630D01*
X140419763Y-54592640D01*
X140419770Y-54592646D01*
X140552188Y-54681124D01*
X140553209Y-54681806D01*
X140557802Y-54683449D01*
X140615483Y-54707342D01*
X140636916Y-54718799D01*
X140656841Y-54732112D01*
X140675633Y-54747534D01*
X142116905Y-56188806D01*
X142160639Y-56232541D01*
X142160643Y-56232544D01*
X142281361Y-56313206D01*
X142281368Y-56313210D01*
X142375202Y-56352077D01*
X142415512Y-56368774D01*
X142551498Y-56395823D01*
X142557913Y-56397099D01*
X142557917Y-56397100D01*
X142557918Y-56397100D01*
X142703114Y-56397100D01*
X144462412Y-56397100D01*
X144497347Y-56402123D01*
X144512345Y-56406527D01*
X144571119Y-56444298D01*
X144571121Y-56444301D01*
X144571123Y-56444302D01*
X144571123Y-56444303D01*
X144580036Y-56454588D01*
X144600886Y-56488340D01*
X144623510Y-56542958D01*
X144623514Y-56542964D01*
X144623517Y-56542969D01*
X144711995Y-56675387D01*
X144712001Y-56675394D01*
X144824605Y-56787998D01*
X144824612Y-56788004D01*
X144957030Y-56876482D01*
X144957031Y-56876482D01*
X144957032Y-56876483D01*
X144957034Y-56876483D01*
X144958052Y-56877164D01*
X144962650Y-56878810D01*
X145104169Y-56937430D01*
X145260365Y-56968499D01*
X145260369Y-56968500D01*
X145260370Y-56968500D01*
X145419631Y-56968500D01*
X145419632Y-56968499D01*
X145575831Y-56937430D01*
X145722968Y-56876483D01*
X145855389Y-56788003D01*
X145968003Y-56675389D01*
X146056483Y-56542968D01*
X146117430Y-56395831D01*
X146148500Y-56239630D01*
X146148500Y-56080370D01*
X146117430Y-55924169D01*
X146085264Y-55846515D01*
X146056484Y-55777033D01*
X145968001Y-55644608D01*
X145967995Y-55644602D01*
X145925285Y-55601892D01*
X145855394Y-55532001D01*
X145855387Y-55531995D01*
X145722969Y-55443517D01*
X145722964Y-55443514D01*
X145722965Y-55443514D01*
X145722958Y-55443510D01*
X145659668Y-55417294D01*
X145638232Y-55405837D01*
X145631379Y-55401258D01*
X145618313Y-55392527D01*
X145599528Y-55377111D01*
X145309877Y-55087459D01*
X145309876Y-55087458D01*
X145309875Y-55087457D01*
X145189160Y-55006797D01*
X145189159Y-55006796D01*
X145189154Y-55006793D01*
X145189141Y-55006786D01*
X145189134Y-55006782D01*
X145055009Y-54951227D01*
X145054978Y-54951220D01*
X144912604Y-54922900D01*
X144912602Y-54922900D01*
X144912598Y-54922900D01*
X143005025Y-54922900D01*
X143005024Y-54922899D01*
X143005024Y-54922900D01*
X142970089Y-54917877D01*
X142944847Y-54910465D01*
X142892102Y-54879169D01*
X141718050Y-53705117D01*
X141702629Y-53686327D01*
X141689316Y-53666403D01*
X141677857Y-53644965D01*
X141651640Y-53581672D01*
X141563162Y-53449254D01*
X141563156Y-53449247D01*
X141450552Y-53336643D01*
X141450545Y-53336637D01*
X141318127Y-53248159D01*
X141318128Y-53248159D01*
X141318126Y-53248158D01*
X141212288Y-53204318D01*
X141201289Y-53199116D01*
X141190593Y-53193399D01*
X141180154Y-53187142D01*
X141119410Y-53146554D01*
X141119347Y-53146512D01*
X141118425Y-53145896D01*
X141113807Y-53144245D01*
X140985325Y-53091027D01*
X140985294Y-53091020D01*
X140842920Y-53062700D01*
X140842918Y-53062700D01*
X140842914Y-53062700D01*
X140508818Y-53062700D01*
X140494800Y-53061522D01*
X140494030Y-53061470D01*
X140476319Y-53060581D01*
X140409248Y-53058374D01*
X140399823Y-53058150D01*
X140399479Y-53058145D01*
X140337114Y-53061034D01*
X140330587Y-53062700D01*
X139122598Y-53062700D01*
X138977402Y-53062700D01*
X138977397Y-53062700D01*
X138977395Y-53062700D01*
X138835020Y-53091020D01*
X138834989Y-53091027D01*
X138700864Y-53146582D01*
X138700858Y-53146586D01*
X138700838Y-53146597D01*
X138580123Y-53227257D01*
X138371492Y-53435890D01*
X138151132Y-53656251D01*
X138010345Y-53797038D01*
X137959009Y-53848373D01*
X137959008Y-53848374D01*
X137959007Y-53848373D01*
X137907676Y-53899704D01*
X137907673Y-53899708D01*
X137827016Y-54020419D01*
X137827006Y-54020436D01*
X137827001Y-54020445D01*
X137771446Y-54154570D01*
X137771439Y-54154601D01*
X137743119Y-54296975D01*
X137743119Y-57319928D01*
X137740737Y-57344115D01*
X137738703Y-57354342D01*
X137736063Y-57367612D01*
X137729007Y-57390870D01*
X137702794Y-57454153D01*
X137702788Y-57454172D01*
X137702783Y-57454193D01*
X137671719Y-57610362D01*
X137671719Y-57610365D01*
X137671719Y-57769634D01*
X137671719Y-57769636D01*
X137671718Y-57769636D01*
X135268455Y-57769636D01*
X135277508Y-57760583D01*
X135417966Y-57567259D01*
X135526452Y-57354342D01*
X135600296Y-57127076D01*
X135637678Y-56891056D01*
X135637678Y-56652094D01*
X135600296Y-56416074D01*
X135526452Y-56188808D01*
X135417966Y-55975891D01*
X135277508Y-55782567D01*
X135108536Y-55613595D01*
X135108534Y-55613593D01*
X135103294Y-55609786D01*
X135099921Y-55606949D01*
X135097464Y-55603247D01*
X135081545Y-55587777D01*
X135073070Y-55576787D01*
X135063365Y-55551862D01*
X135061288Y-55548732D01*
X135061254Y-55546440D01*
X135047719Y-55511678D01*
X135061592Y-55443203D01*
X135064853Y-55437022D01*
X135101641Y-55394564D01*
X135102956Y-55393609D01*
X135106522Y-55391017D01*
X135108044Y-55389957D01*
X135108530Y-55389558D01*
X135108536Y-55389555D01*
X135277508Y-55220583D01*
X135417966Y-55027259D01*
X135526452Y-54814342D01*
X135600296Y-54587076D01*
X135637678Y-54351056D01*
X135637678Y-54112094D01*
X135600296Y-53876074D01*
X135526452Y-53648808D01*
X135417966Y-53435891D01*
X135277508Y-53242567D01*
X135108536Y-53073595D01*
X135108535Y-53073594D01*
X135108534Y-53073593D01*
X135087271Y-53058145D01*
X135060897Y-53038983D01*
X135035595Y-53014391D01*
X135023574Y-52998801D01*
X134999099Y-52941169D01*
X134996251Y-52921850D01*
X134996250Y-52921849D01*
X134996246Y-52921845D01*
X134586689Y-52512289D01*
X134553205Y-52450967D01*
X134558189Y-52381276D01*
X134600060Y-52325342D01*
X134605482Y-52321506D01*
X134625511Y-52308123D01*
X134625514Y-52308121D01*
X134736074Y-52197561D01*
X134749458Y-52177529D01*
X134803068Y-52132724D01*
X134872393Y-52124015D01*
X134935421Y-52154168D01*
X134940242Y-52158738D01*
X135349093Y-52567589D01*
X135349093Y-52567588D01*
X135349094Y-52567589D01*
X135349094Y-52567588D01*
X135362562Y-52562009D01*
X135368779Y-52540839D01*
X135372776Y-52534993D01*
X135376816Y-52529432D01*
X135410695Y-52482802D01*
X135410699Y-52482796D01*
X135518573Y-52271081D01*
X135592005Y-52045082D01*
X135629178Y-51810386D01*
X135629178Y-51572763D01*
X135592005Y-51338067D01*
X135518573Y-51112068D01*
X135410695Y-50900345D01*
X135372775Y-50848153D01*
X135363235Y-50821416D01*
X135349093Y-50815558D01*
X134940242Y-51224410D01*
X134878919Y-51257895D01*
X134809227Y-51252911D01*
X134753294Y-51211039D01*
X134749460Y-51205621D01*
X134736076Y-51185591D01*
X134736071Y-51185585D01*
X134625515Y-51075029D01*
X134605477Y-51061640D01*
X134560673Y-51008027D01*
X134551967Y-50938702D01*
X134582123Y-50875675D01*
X134586666Y-50870881D01*
X134996519Y-50461030D01*
X135003464Y-50427970D01*
X135010346Y-50414160D01*
X135012207Y-50401545D01*
X135031391Y-50371930D01*
X135037284Y-50365178D01*
X135057809Y-50346409D01*
X135108536Y-50309555D01*
X135277508Y-50140583D01*
X135417966Y-49947259D01*
X135526452Y-49734342D01*
X135600296Y-49507076D01*
X135637678Y-49271056D01*
X135637678Y-49032094D01*
X135600296Y-48796074D01*
X135526452Y-48568808D01*
X135417966Y-48355891D01*
X135410292Y-48345329D01*
X135387904Y-48314514D01*
X135351643Y-48264603D01*
X135351642Y-48264600D01*
X135335179Y-48233402D01*
X135330417Y-48220058D01*
X135329398Y-48202254D01*
X135328165Y-48198797D01*
X135328996Y-48195223D01*
X135326425Y-48150308D01*
X135360178Y-48090054D01*
X135370282Y-48080101D01*
X135370281Y-48080100D01*
X135381914Y-48068640D01*
X135394622Y-48057710D01*
X135492439Y-47984486D01*
X135580067Y-47867429D01*
X135631167Y-47730426D01*
X135634769Y-47696917D01*
X135637677Y-47669879D01*
X135637678Y-47669862D01*
X135637678Y-45553287D01*
X135637677Y-45553270D01*
X135634335Y-45522195D01*
X135631167Y-45492724D01*
X135580067Y-45355721D01*
X135492439Y-45238664D01*
X135375382Y-45151036D01*
X135375377Y-45151033D01*
X135238387Y-45099937D01*
X135238375Y-45099935D01*
X135177838Y-45093425D01*
X135177832Y-45093425D01*
X135177816Y-45093425D01*
X133061240Y-45093425D01*
X133061223Y-45093425D01*
X133061216Y-45093425D01*
X133020413Y-45097813D01*
X133020410Y-45097813D01*
X133000675Y-45099936D01*
X133000673Y-45099936D01*
X132896819Y-45138671D01*
X132894563Y-45139418D01*
X132893648Y-45139448D01*
X132836138Y-45160894D01*
X132766446Y-45165873D01*
X132705125Y-45132383D01*
X132672682Y-45075441D01*
X132670304Y-45066148D01*
X132666436Y-45035577D01*
X132665028Y-43942280D01*
X132665051Y-43942129D01*
X132670005Y-43907350D01*
X132674393Y-43892335D01*
X132712084Y-43833520D01*
X132713425Y-43832355D01*
X132768322Y-43804813D01*
X132774644Y-43803433D01*
X132775955Y-43803148D01*
X132802377Y-43800300D01*
X137435370Y-43800300D01*
X137470306Y-43805323D01*
G37*
%TD.AperFunction*%
%TA.AperFunction,Conductor*%
G36*
X133415298Y-52129196D02*
G01*
X133429825Y-52130235D01*
X133446690Y-52142860D01*
X133466007Y-52151268D01*
X133482605Y-52169745D01*
X133485759Y-52172106D01*
X133489593Y-52177524D01*
X133502982Y-52197562D01*
X133613538Y-52308118D01*
X133613544Y-52308123D01*
X133633574Y-52321507D01*
X133678378Y-52375119D01*
X133687085Y-52444444D01*
X133656930Y-52507471D01*
X133652363Y-52512289D01*
X133242534Y-52922117D01*
X133235589Y-52955178D01*
X133228705Y-52968990D01*
X133226846Y-52981601D01*
X133207658Y-53011224D01*
X133201776Y-53017963D01*
X133181244Y-53036739D01*
X133130523Y-53073591D01*
X133130517Y-53073596D01*
X132957054Y-53247059D01*
X132952925Y-53254433D01*
X132933893Y-53280630D01*
X132933890Y-53280635D01*
X132911819Y-53311012D01*
X132887222Y-53336321D01*
X132878266Y-53343227D01*
X132813156Y-53368576D01*
X132744678Y-53354700D01*
X132694590Y-53306034D01*
X132693053Y-53303314D01*
X132677009Y-53242473D01*
X132676734Y-53028511D01*
X132676275Y-52673050D01*
X132681255Y-52638119D01*
X132684429Y-52627261D01*
X132722132Y-52568437D01*
X132785652Y-52539335D01*
X132854810Y-52549189D01*
X132858427Y-52550835D01*
X132869488Y-52558856D01*
X132886930Y-52567350D01*
X132889959Y-52567589D01*
X132889959Y-52567588D01*
X132889960Y-52567589D01*
X133298813Y-52158734D01*
X133317298Y-52148640D01*
X133332973Y-52134561D01*
X133347351Y-52132230D01*
X133360134Y-52125251D01*
X133381145Y-52126753D01*
X133401943Y-52123383D01*
X133415298Y-52129196D01*
G37*
%TD.AperFunction*%
%TA.AperFunction,Conductor*%
G36*
X132851538Y-50019160D02*
G01*
X132854336Y-50020433D01*
X132903301Y-50060413D01*
X132961548Y-50140583D01*
X132961550Y-50140585D01*
X133130519Y-50309555D01*
X133130520Y-50309556D01*
X133169780Y-50338079D01*
X133169779Y-50338080D01*
X133169789Y-50338085D01*
X133175361Y-50342134D01*
X133178156Y-50344165D01*
X133203448Y-50368746D01*
X133215470Y-50384334D01*
X133239954Y-50441975D01*
X133242802Y-50461297D01*
X133242803Y-50461298D01*
X133652365Y-50870859D01*
X133685850Y-50932182D01*
X133680866Y-51001873D01*
X133638995Y-51057807D01*
X133633578Y-51061640D01*
X133613543Y-51075027D01*
X133613538Y-51075031D01*
X133502984Y-51185585D01*
X133502980Y-51185590D01*
X133489593Y-51205625D01*
X133435980Y-51250428D01*
X133366654Y-51259134D01*
X133303628Y-51228977D01*
X133298812Y-51224412D01*
X133136040Y-51061640D01*
X132889961Y-50815560D01*
X132889960Y-50815560D01*
X132889959Y-50815559D01*
X132882850Y-50816119D01*
X132882845Y-50816121D01*
X132875016Y-50822159D01*
X132858393Y-50828630D01*
X132844264Y-50839522D01*
X132826509Y-50841043D01*
X132809906Y-50847508D01*
X132792423Y-50843965D01*
X132774650Y-50845489D01*
X132758891Y-50837170D01*
X132741429Y-50833632D01*
X132728636Y-50821200D01*
X132712860Y-50812872D01*
X132691338Y-50784952D01*
X132691324Y-50784938D01*
X132689776Y-50782197D01*
X132673760Y-50721405D01*
X132673015Y-50143034D01*
X132677991Y-50108106D01*
X132681167Y-50097240D01*
X132718865Y-50038418D01*
X132782384Y-50009312D01*
X132851538Y-50019160D01*
G37*
%TD.AperFunction*%
%TD*%
%TA.AperFunction,Conductor*%
%TO.N,+5V*%
G36*
X140392360Y-53571596D02*
G01*
X140459431Y-53573803D01*
X140460201Y-53573855D01*
X140530028Y-53580880D01*
X140530735Y-53580974D01*
X140593073Y-53591329D01*
X140593707Y-53591452D01*
X140649985Y-53604048D01*
X140650392Y-53604149D01*
X140702040Y-53617914D01*
X140702074Y-53617924D01*
X140750406Y-53631750D01*
X140750421Y-53631754D01*
X140796556Y-53644461D01*
X140841811Y-53654922D01*
X140841818Y-53654923D01*
X140841822Y-53654924D01*
X140887579Y-53662025D01*
X140927192Y-53664203D01*
X140935264Y-53668079D01*
X140937659Y-53672217D01*
X141056938Y-54033488D01*
X141056278Y-54042418D01*
X141049496Y-54048266D01*
X141048057Y-54048642D01*
X140686025Y-54118907D01*
X140677251Y-54117119D01*
X140674336Y-54114305D01*
X140671613Y-54110564D01*
X140663161Y-54098948D01*
X140663151Y-54098938D01*
X140644636Y-54081055D01*
X140644632Y-54081052D01*
X140623058Y-54066349D01*
X140623057Y-54066348D01*
X140623052Y-54066345D01*
X140598348Y-54054540D01*
X140598345Y-54054539D01*
X140598343Y-54054538D01*
X140570452Y-54045347D01*
X140570448Y-54045346D01*
X140570445Y-54045345D01*
X140557167Y-54042418D01*
X140539273Y-54038473D01*
X140539268Y-54038472D01*
X140539267Y-54038472D01*
X140526791Y-54036722D01*
X140504742Y-54033631D01*
X140504731Y-54033630D01*
X140501445Y-54033361D01*
X140466797Y-54030531D01*
X140425319Y-54028882D01*
X140391890Y-54028524D01*
X140383654Y-54025009D01*
X140380316Y-54016825D01*
X140380316Y-53583291D01*
X140383743Y-53575018D01*
X140392016Y-53571591D01*
X140392360Y-53571596D01*
G37*
%TD.AperFunction*%
%TD*%
M02*
