M48
; DRILL file KiCad 10.0.2 date 2026-06-06T21:11:37
; FORMAT={-:-/ absolute / metric / decimal}
; #@! TF.CreationDate,2026-06-06T21:11:37-05:00
; #@! TF.GenerationSoftware,Kicad,Pcbnew,10.0.2
; #@! TF.FileFunction,Plated,1,2,PTH
FMAT,2
METRIC
; #@! TA.AperFunction,Plated,PTH,ViaDrill
T1C0.300
; #@! TA.AperFunction,Plated,PTH,ComponentDrill
T2C1.575
; #@! TA.AperFunction,Plated,PTH,ComponentDrill
T3C1.587
; #@! TA.AperFunction,Plated,PTH,ComponentDrill
T4C2.200
%
G90
G05
T1
X133.476Y-44.611
X136.0Y-45.275
X136.014Y-46.461
X136.233Y-53.351
X136.25Y-52.025
X136.75Y-54.525
X137.13Y-64.0
X137.16Y-68.15
X137.357Y-52.01
X137.467Y-56.937
X137.75Y-54.525
X137.86Y-48.38
X137.94Y-45.93
X137.94Y-80.86
X138.0Y-77.6
X138.48Y-57.69
X138.59Y-63.01
X138.7Y-60.45
X138.75Y-52.525
X138.92Y-68.33
X138.96Y-66.56
X139.0Y-67.33
X139.509Y-57.601
X139.57Y-60.4
X139.75Y-54.525
X140.2Y-59.875
X140.218Y-64.01
X140.25Y-55.025
X140.25Y-74.888
X140.63Y-69.946
X140.75Y-55.94
X140.935Y-53.965
X140.975Y-65.77
X141.001Y-55.215
X141.08Y-68.36
X141.09Y-67.34
X141.12Y-66.51
X141.2Y-72.93
X141.29Y-71.91
X141.564Y-58.164
X141.62Y-52.96
X141.64Y-52.27
X141.67Y-50.01
X141.72Y-62.03
X141.84Y-63.0
X141.95Y-74.79
X141.97Y-75.49
X142.0Y-69.25
X142.04Y-68.34
X142.05Y-50.76
X142.07Y-74.04
X142.09Y-67.43
X142.115Y-70.18
X142.27Y-51.44
X142.38Y-66.64
X142.659Y-53.082
X142.866Y-71.946
X142.95Y-61.48
X142.96Y-66.01
X142.97Y-62.49
X143.025Y-57.025
X143.03Y-59.76
X143.03Y-60.51
X143.05Y-65.06
X143.1Y-63.9
X143.421Y-53.121
X143.613Y-59.287
X144.07Y-56.81
X144.22Y-50.37
X144.22Y-51.18
X144.33Y-73.3
X144.38Y-67.63
X144.43Y-75.55
X144.49Y-49.65
X144.705Y-76.115
X144.737Y-54.101
X144.75Y-72.56
X145.16Y-57.53
X145.21Y-76.62
X145.34Y-56.16
X145.64Y-53.03
X145.68Y-58.44
X145.7Y-59.25
X145.87Y-72.52
X145.91Y-60.07
X146.05Y-57.15
X146.05Y-63.5
X146.05Y-64.77
X146.05Y-67.31
X146.05Y-68.58
X146.05Y-69.85
X146.27Y-60.98
X146.27Y-62.43
X146.3Y-66.04
X146.745Y-71.365
X147.32Y-57.15
X147.32Y-58.42
X147.32Y-59.69
X147.32Y-60.96
X147.32Y-62.23
X147.32Y-63.5
X147.32Y-64.77
X147.32Y-66.04
X147.32Y-67.31
X147.32Y-68.58
X147.32Y-69.85
X148.14Y-77.54
X148.17Y-49.85
X148.17Y-80.94
X148.25Y-46.525
X148.25Y-48.525
X148.59Y-57.15
X148.59Y-58.42
X148.59Y-59.69
X148.59Y-60.96
X148.59Y-62.23
X148.59Y-63.5
X148.59Y-64.77
X148.59Y-66.04
X148.59Y-67.31
X148.59Y-68.58
X148.59Y-69.85
X149.86Y-57.15
X149.86Y-58.42
X149.86Y-59.69
X149.86Y-67.31
X149.86Y-68.58
X149.86Y-69.85
X151.13Y-57.15
X151.13Y-58.42
X151.13Y-59.69
X151.13Y-67.31
X151.13Y-68.58
X151.13Y-69.85
X152.25Y-45.525
X152.25Y-48.025
X152.4Y-55.88
X152.4Y-57.15
X152.4Y-58.42
X152.4Y-59.69
X152.4Y-60.96
X152.4Y-62.23
X152.4Y-63.5
X152.4Y-64.77
X152.4Y-66.04
X152.4Y-67.31
X152.4Y-68.58
X152.4Y-69.85
T2
X134.12Y-46.612
X134.12Y-56.772
T3
X134.12Y-49.152
X134.12Y-51.692
X134.12Y-54.232
T4
X150.75Y-52.683
X150.75Y-78.845
M30
